<svg width="24" height="24" viewBox="0 0 24 24" fill="none"
                    xmlns="http://www.w3.org/2000/svg">
                    <path
                        d="M19 8C19.5523 8 20 8.44771 20 9C20 9.55228 19.5523 10 19 10L1 10C0.447715 10 1.35705e-07 9.55228 8.74228e-08 9C3.91405e-08 8.44772 0.447715 8 1 8L19 8Z"
                        fill="#292929" />
                    <path
                        d="M2 5L2 4L1 4C0.447716 4 8.25954e-07 3.55228 2.62268e-07 3C2.13986e-07 2.44772 0.447715 2 1 2L2 2L2 1C2 0.447716 2.44772 5.59119e-07 3 -2.62268e-07C3.55228 -3.10551e-07 4 0.447715 4 1L4 2L5 2L5.10254 2.00488C5.60667 2.05621 6 2.48232 6 3C6 3.51768 5.60667 3.94379 5.10254 3.99512L5 4L4 4L4 5C4 5.55228 3.55228 6 3 6C2.44772 6 2 5.55228 2 5ZM19 2L19.1025 2.00488C19.6067 2.05621 20 2.48232 20 3C20 3.51768 19.6067 3.94378 19.1025 3.99512L19 4L8 4C7.44772 4 7 3.55228 7 3C7 2.44772 7.44772 2 8 2L19 2Z"
                        fill="#292929" />
                    <path
                        d="M19 14C19.5523 14 20 14.4477 20 15C20 15.5523 19.5523 16 19 16L1 16C0.447715 16 1.35705e-07 15.5523 8.74228e-08 15C3.91405e-08 14.4477 0.447715 14 1 14L19 14Z"
                        fill="#292929" />
                </svg>