<svg width="15" height="15" viewBox="0 0 20 20" fill="none" xmlns="http://www.w3.org/2000/svg">
<path
    d="M7 18.25V1.75C7 1.19772 7.44772 0.75 8 0.75C8.55228 0.75 9 1.19772 9 1.75V18.25C9 18.8023 8.55228 19.25 8 19.25C7.44772 19.25 7 18.8023 7 18.25Z"
    fill="#111827" />
<path
    d="M14.1189 10.7246C14.5117 10.4043 15.0907 10.4269 15.4568 10.793C15.8229 11.1591 15.8455 11.7381 15.5252 12.1309L15.4568 12.207L8.7068 18.957C8.31627 19.3476 7.68326 19.3476 7.29273 18.957L0.542734 12.207L0.474375 12.1309C0.154025 11.7381 0.176618 11.1591 0.542734 10.793C0.90885 10.4269 1.48785 10.4043 1.88063 10.7246L1.9568 10.793L7.99977 16.8359L14.0427 10.793L14.1189 10.7246Z"
    fill="#111827" />
</svg>