<svg width="24" height="24" viewBox="0 0 24 24" fill="none" xmlns="http://www.w3.org/2000/svg">
                    <path
                        d="M0.5 5C0.5 4.24042 0.752077 3.12339 1.51172 2.18555C2.28854 1.22651 3.56046 0.5 5.5 0.5V1.5C3.83954 1.5 2.86127 2.10682 2.28809 2.81445C1.69779 3.54325 1.5 4.42627 1.5 5V5.7998H0.5V5Z"
                        fill="white" />
                    <path
                        d="M2 6.2998H0V5C1.47832e-08 4.14754 0.278897 2.9134 1.12305 1.87109L1.29395 1.6709C2.18144 0.690691 3.55081 0 5.5 0H6V2H5.5C4.07426 2 3.2548 2.48097 2.76953 3.02051L2.67676 3.12891C2.17117 3.75313 2 4.51909 2 5V6.2998Z"
                        fill="white" />
                    <path
                        d="M21.25 0.5C21.9846 0.5 23.0479 0.77745 23.9326 1.59277C24.8319 2.42171 25.5 3.76296 25.5 5.7998H24.5C24.5 3.99724 23.9178 2.93919 23.2549 2.32812C22.5771 1.70345 21.7654 1.5 21.25 1.5H20.5V0.5H21.25Z"
                        fill="white" />
                    <path
                        d="M23.8789 2.25293C23.8331 2.2003 23.7857 2.15029 23.7383 2.10156L23.5938 1.95996C23.5635 1.93207 23.5317 1.90635 23.501 1.87988C23.5318 1.90642 23.5634 1.93297 23.5938 1.96094L23.7383 2.10156C23.8332 2.19918 23.9254 2.30442 24.0137 2.41797L23.8789 2.25293ZM20 2V0H21.25C22.0942 0 23.2834 0.314968 24.2715 1.22559L24.459 1.40723C25.3755 2.35084 26 3.78061 26 5.7998V6.2998H24V5.7998C24 4.21977 23.5259 3.31563 23.0176 2.79492L22.916 2.69531C22.3414 2.16593 21.6554 2 21.25 2H20Z"
                        fill="white" />
                    <path
                        d="M4.75 20.7C4.01541 20.7 2.95207 20.4225 2.06738 19.6072C1.16807 18.7782 0.500043 17.437 0.5 15.4001H1.5C1.50004 17.2027 2.08219 18.2608 2.74512 18.8718C3.42293 19.4965 4.23459 19.7 4.75 19.7H5.5V20.7H4.75Z"
                        fill="white" />
                    <path
                        d="M2.12109 18.947C2.16694 18.9997 2.21432 19.0497 2.26172 19.0984L2.40625 19.24C2.43652 19.2679 2.46831 19.2936 2.49902 19.3201C2.46823 19.2935 2.4366 19.267 2.40625 19.239L2.26172 19.0984C2.16676 19.0008 2.07459 18.8955 1.98633 18.782L2.12109 18.947ZM6 19.2V21.2H4.75C3.90577 21.2 2.7166 20.885 1.72852 19.9744L1.54102 19.7927C0.624536 18.8491 4.23338e-05 17.4193 0 15.4001V14.9001H2V15.4001C2.00004 16.9802 2.47414 17.8843 2.98242 18.405L3.08398 18.5046C3.65855 19.034 4.3446 19.2 4.75 19.2H6Z"
                        fill="white" />
                    <path
                        d="M25.5 16.2C25.5 16.9595 25.2479 18.0766 24.4883 19.0144C23.7115 19.9734 22.4395 20.7 20.5 20.7V19.7C22.1605 19.7 23.1387 19.0931 23.7119 18.3855C24.3022 17.6567 24.5 16.7737 24.5 16.2V15.4001H25.5V16.2Z"
                        fill="white" />
                    <path
                        d="M24 14.9001H26V16.2C26 17.0524 25.7211 18.2866 24.877 19.3289L24.7061 19.5291C23.8186 20.5093 22.4492 21.2 20.5 21.2H20V19.2H20.5C21.9257 19.2 22.7452 18.719 23.2305 18.1794L23.3232 18.071C23.8288 17.4468 24 16.6809 24 16.2V14.9001Z"
                        fill="white" />
                    <path
                        d="M21 19.2002V21.2002H11.8301L4 26.9824V19.5H6V23.0176L11.0371 19.2988L11.1699 19.2002H21ZM2 5.2998V15.9004H0V5.2998H2ZM26 5.2998V15.9004H24V5.2998H26ZM21 0V2H5V0H21Z"
                        fill="white" />
                    <path
                        d="M20 13C20.5523 13 21 13.4477 21 14C21 14.5523 20.5523 15 20 15H5C4.44772 15 4 14.5523 4 14C4 13.4477 4.44772 13 5 13H20ZM18 9C18.5523 9 19 9.44772 19 10C19 10.5523 18.5523 11 18 11H5C4.44772 11 4 10.5523 4 10C4 9.44772 4.44772 9 5 9H18ZM22 5C22.5523 5 23 5.44772 23 6C23 6.55228 22.5523 7 22 7H4C3.44772 7 3 6.55228 3 6C3 5.44772 3.44772 5 4 5H22Z"
                        fill="white" />
                </svg>