<svg width="20" height="20" viewBox="0 0 20 20" fill="none" xmlns="http://www.w3.org/2000/svg">
<g clip-path="url(#clip0_1011_10749)">
<path d="M11.5 10C11.5 9.06112 10.7387 8.2998 9.7998 8.2998C8.86092 8.2998 8.09961 9.06112 8.09961 10C8.09961 10.9389 8.86092 11.7002 9.7998 11.7002V13.5C7.86681 13.5 6.2998 11.933 6.2998 10C6.2998 8.067 7.86681 6.5 9.7998 6.5C11.7328 6.5 13.2998 8.067 13.2998 10C13.2998 11.933 11.7328 13.5 9.7998 13.5V11.7002C10.7387 11.7002 11.5 10.9389 11.5 10Z" fill="#525B61"/>
<path d="M0.830078 9.87106C3.49674 14.9716 10.8301 22.1123 18.8301 9.87106C15.8301 4.93508 8.03008 -1.97529 0.830078 9.87106Z" stroke="#525B61" stroke-width="2"/>
</g>
<defs>
<clipPath id="clip0_1011_10749">
<rect width="20" height="20" fill="white"/>
</clipPath>
</defs>
</svg>
