<svg width="24" height="24" viewBox="0 0 24 24" fill="none" xmlns="http://www.w3.org/2000/svg">
<path d="M19.5 12.5722L12 20.0002L4.5 12.5722C4.00531 12.0908 3.61564 11.5122 3.35555 10.8728C3.09545 10.2334 2.97056 9.54713 2.98874 8.85711C3.00691 8.16709 3.16776 7.48831 3.46116 6.86351C3.75455 6.23871 4.17414 5.68143 4.69349 5.22676C5.21284 4.77208 5.8207 4.42987 6.47881 4.22166C7.13692 4.01345 7.83101 3.94376 8.51737 4.01698C9.20373 4.0902 9.8675 4.30473 10.4669 4.64708C11.0663 4.98943 11.5882 5.45218 12 6.00618C12.4135 5.4562 12.9361 4.9975 13.5351 4.65878C14.1341 4.32007 14.7965 4.10863 15.4809 4.0377C16.1654 3.96677 16.8571 4.03787 17.5128 4.24657C18.1685 4.45526 18.774 4.79705 19.2916 5.25054C19.8091 5.70403 20.2274 6.25946 20.5204 6.88207C20.8134 7.50468 20.9747 8.18106 20.9943 8.86889C21.0139 9.55671 20.8913 10.2412 20.6341 10.8794C20.377 11.5177 19.9909 12.096 19.5 12.5782" stroke="#0A1128" stroke-width="2" stroke-linecap="round" stroke-linejoin="round"/>
</svg>
