<svg width="21" height="17" viewBox="0 0 21 17" fill="none" xmlns="http://www.w3.org/2000/svg">
<path d="M6.39844 1.50193C7.18325 0.14806 8.98506 -0.46828 10.5 0.406227L19.5 5.60252C21.4997 6.75721 21.4996 9.64301 19.5 10.7978L10.5 15.9941C8.9845 16.8691 7.18285 16.2523 6.39844 14.8974L4.5 15.9951C2.56271 17.1134 0.15576 15.794 0.00683594 13.6113L0 13.3974V3.00486C4.0505e-05 0.695493 2.50001 -0.747489 4.5 0.407203L6.39844 1.50193ZM3.5 2.13865C2.83337 1.75387 2.00004 2.23513 2 3.00486V13.3974L2.00977 13.5381C2.10406 14.2234 2.87522 14.624 3.5 14.2636L6 12.8193V3.58201L3.5 2.13865Z" fill="#292929"/>
</svg>
