<svg width="21" height="18" viewBox="0 0 21 18" fill="none" xmlns="http://www.w3.org/2000/svg">
<path d="M16.5002 1.2055C18.4375 0.087373 20.8445 1.4066 20.9934 3.58931L21.0002 3.80318V14.1958C21.0002 16.5052 18.5002 17.9482 16.5002 16.7935L14.6008 15.6968C13.8163 17.0516 12.0157 17.6684 10.5003 16.7935L1.5003 11.5972C-0.499445 10.4424 -0.499451 7.55658 1.5003 6.40183L10.5003 1.2055C12.0149 0.331337 13.8148 0.94792 14.5998 2.30121L16.5002 1.2055ZM18.9905 3.66255C18.8962 2.97728 18.125 2.57676 17.5002 2.93696L15.0002 4.38131V13.6187L17.5002 15.0621C18.1668 15.4468 19.0002 14.9656 19.0002 14.1958V3.80318L18.9905 3.66255Z" fill="#292929"/>
</svg>
