<svg width="24" height="24" viewBox="0 0 24 24" fill="none" xmlns="http://www.w3.org/2000/svg">
<g transform="translate(0, 2)">
<path d="M21 10C21.5523 10 22 10.4477 22 11C22 13.7614 19.7614 16 17 16H6V17C6 17.4044 5.75641 17.769 5.38281 17.9238C5.00914 18.0786 4.57897 17.993 4.29297 17.707L2.29297 15.707C1.90244 15.3165 1.90244 14.6835 2.29297 14.293L4.29297 12.293C4.57897 12.007 5.00914 11.9214 5.38281 12.0762C5.75641 12.231 6 12.5956 6 13V14H17C18.6569 14 20 12.6569 20 11C20 10.4477 20.4477 10 21 10ZM13.5 13C13.5 13.2761 13.2761 13.5 13 13.5C12.7239 13.5 12.5 13.2761 12.5 13V9.0674L11.3203 10.0508C11.1082 10.2276 10.793 10.1985 10.6162 9.9863C10.4395 9.7742 10.4676 9.459 10.6797 9.2822L12.6797 7.61621L13.5 6.93262V13ZM18.6172 2.07617C18.9909 1.92139 19.421 2.00697 19.707 2.29297L21.707 4.29297C22.0976 4.68349 22.0976 5.31651 21.707 5.70703L19.707 7.70703C19.421 7.99303 18.9909 8.0786 18.6172 7.92383C18.2436 7.76902 18 7.40442 18 7V6H7C5.34315 6 4 7.34315 4 9C4 9.5523 3.55228 10 3 10C2.44772 10 2 9.5523 2 9C2 6.23858 4.23858 4 7 4H18V3C18 2.59558 18.2436 2.23098 18.6172 2.07617Z" fill="#1282A2"/>
</g>
</svg>
