<svg width="24" height="24" viewBox="0 0 24 24" fill="none"
                    xmlns="http://www.w3.org/2000/svg">
                    <path
                        d="M19 7.99999C19.5523 7.99999 20 8.44771 20 8.99999C20 11.7614 17.7614 14 15 14H4V15C4 15.4044 3.75641 15.769 3.38281 15.9238C3.05575 16.0593 2.68531 16.0107 2.40625 15.8047L2.29297 15.707L0.292969 13.707C-0.0975554 13.3165 -0.0975554 12.6835 0.292969 12.293L2.29297 10.293C2.57897 10.007 3.00914 9.92138 3.38281 10.0762C3.75641 10.231 4 10.5956 4 11V12H15C16.6569 12 18 10.6568 18 8.99999C18 8.44771 18.4477 7.99999 19 7.99999ZM16.6172 0.076165C16.9443 -0.0593103 17.3147 -0.0107115 17.5938 0.195306L17.707 0.292962L19.707 2.29296C20.0976 2.68349 20.0976 3.3165 19.707 3.70702L17.707 5.70702C17.421 5.99302 16.9909 6.0786 16.6172 5.92382C16.2436 5.76901 16 5.40441 16 4.99999V3.99999H5L4.8457 4.0039C3.26055 4.08421 2 5.39489 2 6.99999C2 7.55228 1.55228 7.99999 1 7.99999C0.447715 7.99999 0 7.55228 0 6.99999C1.28855e-07 4.23857 2.23858 1.99999 5 1.99999H16V0.999993C16 0.595577 16.2436 0.230976 16.6172 0.076165Z"
                        fill="#292929" />
                </svg>