<svg width="24" height="24" viewBox="0 0 24 24" fill="none" xmlns="http://www.w3.org/2000/svg">
<g transform="translate(2, 4)">
<path d="M19 8C19.5523 8 20 8.44772 20 9C20 11.7614 17.7614 14 15 14H4V15C4 15.4044 3.75641 15.769 3.38281 15.9238C3.00914 16.0786 2.57897 15.993 2.29297 15.707L0.292969 13.707C-0.0975554 13.3165 -0.0975554 12.6835 0.292969 12.293L2.29297 10.293C2.57897 10.007 3.00914 9.92139 3.38281 10.0762C3.75641 10.231 4 10.5956 4 11V12H15C16.6569 12 18 10.6569 18 9C18 8.44772 18.4477 8 19 8ZM16.6172 0.0761719C16.9909 -0.0786091 17.421 0.00697075 17.707 0.292969L19.707 2.29297C20.0976 2.68349 20.0976 3.31651 19.707 3.70703L17.707 5.70703C17.421 5.99303 16.9909 6.07861 16.6172 5.92383C16.2436 5.76902 16 5.40442 16 5V4H5C3.34315 4 2 5.34315 2 7C2 7.55228 1.55228 8 1 8C0.447715 8 0 7.55228 0 7C1.28855e-07 4.23858 2.23858 2 5 2H16V1C16 0.595584 16.2436 0.230983 16.6172 0.0761719Z" fill="#1282A2"/>
</g>
</svg>
