<svg width="24" height="24" viewBox="0 0 24 24" fill="none" xmlns="http://www.w3.org/2000/svg">
<g transform="translate(2, 4)">
<path d="M16.6172 10.0762C16.9909 9.92144 17.421 10.007 17.707 10.293L19.707 12.293C20.0976 12.6835 20.0976 13.3166 19.707 13.7071L17.707 15.7071C17.421 15.9931 16.9909 16.0787 16.6172 15.9239C16.2436 15.7691 16 15.4045 16 15V14H14.2646C12.9817 14 11.7679 13.5081 10.8545 12.6563L10.6758 12.4815L10.6084 12.4043C10.2942 12.0068 10.3257 11.4279 10.6973 11.0674C11.0689 10.7069 11.6483 10.6933 12.0361 11.0196L12.1113 11.0889L12.3311 11.293C12.8645 11.7428 13.5465 12 14.2646 12H16V11C16 10.5956 16.2436 10.231 16.6172 10.0762ZM16.6123 0.0781693C16.9869 -0.0793517 17.4197 0.0056435 17.707 0.293013L19.707 2.29301C20.0976 2.68354 20.0976 3.31655 19.707 3.70708L17.707 5.70708C17.3165 6.09759 16.6835 6.0976 16.293 5.70708C16.0262 5.44029 15.9413 5.06027 16.0391 4.72172L16.0312 4.00004H14.2646C13.2111 4.00008 12.2346 4.55274 11.6924 5.4561L8.02246 11.5723C7.11886 13.0783 5.49162 14 3.73535 14H1C0.447715 14 6.4426e-08 13.5523 0 13C0 12.4478 0.447715 12 1 12H3.73535C4.78895 12 5.76542 11.4473 6.30762 10.544L9.97754 4.42778L10.1553 4.15239C11.085 2.8102 12.6181 2.00008 14.2646 2.00004H16.0107L16 1.01079C15.9957 0.604431 16.2377 0.235706 16.6123 0.0781693ZM3.73535 2.00004C5.01829 2.00007 6.23212 2.49198 7.14551 3.34379L7.32422 3.5186L7.3916 3.59575C7.70584 3.99333 7.67431 4.57218 7.30273 4.93266C6.93111 5.29318 6.35173 5.30678 5.96387 4.98051L5.88867 4.91118L5.66895 4.70708C5.13548 4.2573 4.45346 4.00007 3.73535 4.00004H1C0.447715 4.00004 0 3.55233 0 3.00004C0 2.44776 0.447715 2.00004 1 2.00004H3.73535Z" fill="#292929"/>
</g>
</svg>