<svg width="24" height="24" viewBox="0 0 24 24" fill="none" xmlns="http://www.w3.org/2000/svg">
<path d="M18.6172 14.0762C18.9909 13.9214 19.421 14.007 19.707 14.293L21.707 16.293C22.0976 16.6835 22.0976 17.3165 21.707 17.707L19.707 19.707C19.421 19.993 18.9909 20.0786 18.6172 19.9238C18.2436 19.769 18 19.4044 18 19V18H16.2646C14.8963 18 13.6062 17.4405 12.6758 16.4814C12.2913 16.085 12.3009 15.4519 12.6973 15.0674C13.0937 14.6828 13.7268 14.6925 14.1113 15.0889C14.6697 15.6645 15.4439 16 16.2646 16H18V15C18 14.5956 18.2436 14.231 18.6172 14.0762ZM18.6123 4.07812C18.9869 3.9206 19.4197 4.0056 19.707 4.29297L21.707 6.29297C22.0976 6.68349 22.0976 7.31651 21.707 7.70703L19.707 9.70703C19.3165 10.0975 18.6835 10.0976 18.293 9.70703C18.0262 9.44024 17.9413 9.06022 18.0391 8.72168L18.0312 8H16.2646C15.2111 8.00004 14.2346 8.5527 13.6924 9.45605L10.0225 15.5723C9.11886 17.0783 7.49162 18 5.73535 18H3C2.44772 18 2 17.5523 2 17C2 16.4477 2.44772 16 3 16H5.73535C6.78895 16 7.76542 15.4473 8.30762 14.5439L11.9775 8.42773C12.8811 6.92174 14.5084 6.00004 16.2646 6H18.0107L18 5.01074C17.9957 4.60439 18.2377 4.23566 18.6123 4.07812ZM5.73535 6C7.10373 6.00003 8.39381 6.55947 9.32422 7.51855C9.70869 7.91496 9.69911 8.54809 9.30273 8.93262C8.90635 9.31715 8.27323 9.30749 7.88867 8.91113C7.33026 8.33551 6.5561 8.00003 5.73535 8H3C2.44772 8 2 7.55228 2 7C2 6.44772 2.44772 6 3 6H5.73535Z" fill="#1282A2"/>
</svg>
