<svg width="17" height="16" viewBox="0 0 17 16" fill="none" xmlns="http://www.w3.org/2000/svg">
<path d="M8.86337 0.382494C9.97731 -0.429629 11.6031 0.103691 11.9414 1.47662L11.9693 1.61225L12.0956 2.36659C12.3708 4.133 12.5173 5.94298 12.5253 7.78568C12.5344 9.89184 12.3617 11.9571 12.0227 13.9647C11.7734 15.4388 10.0844 16.0492 8.9275 15.2212L6.22967 13.2895C6.05889 13.1673 5.85388 13.1018 5.64389 13.1026L3.03259 13.1139C1.37583 13.121 0.0269343 11.7836 0.019654 10.1269L-0.000114325 5.55268C-0.00707724 3.89601 1.33017 2.54691 2.98689 2.53975L5.5982 2.52846C5.80826 2.52743 6.01258 2.46024 6.18233 2.33648L8.86337 0.382494ZM15.5022 3.56086C16.0523 3.51394 16.5371 3.9221 16.5842 4.47221C16.6769 5.55854 16.7265 6.6581 16.7313 7.76751C16.7361 8.8769 16.696 9.97687 16.6127 11.0639C16.5703 11.6144 16.0891 12.0268 15.5386 11.9846C14.9884 11.9421 14.576 11.4617 14.6179 10.9114C14.6971 9.87791 14.7359 8.83173 14.7313 7.77615C14.7267 6.72076 14.6789 5.67555 14.5908 4.64294C14.5439 4.09287 14.9522 3.60813 15.5022 3.56086Z" fill="#292929"/>
</svg>
