<svg width="24" height="24" viewBox="0 0 24 24" fill="#292929"
                    xmlns="http://www.w3.org/2000/svg">
                    <path
                        d="M8.55893 0.353011C9.6641 -0.334377 11.1841 0.20565 11.5103 1.52777L11.5383 1.66241L11.6545 2.35821C11.9095 3.98809 12.0458 5.65746 12.0531 7.35653C12.0604 9.0556 11.9387 10.7261 11.6978 12.3581L11.5875 13.0549C11.3463 14.4759 9.76744 15.0901 8.6196 14.39L8.50991 14.3182L6.01697 12.5672C5.84749 12.4482 5.64516 12.3843 5.43805 12.3852L3.07479 12.3954C1.41806 12.4025 0.0691903 11.0651 0.0618559 9.40837L0.0445691 5.40841C0.0374087 3.75157 1.37474 2.40263 3.03158 2.39547L5.39484 2.38526C5.60188 2.38431 5.80374 2.31863 5.97216 2.19819L8.44987 0.425749L8.55893 0.353011ZM18.7356 2.33249C19.2503 2.27932 19.7141 2.6267 19.8171 3.12274L19.8332 3.22424L19.9254 4.2385C20.0056 5.2563 20.0485 6.2848 20.053 7.32196C20.059 8.70482 19.9966 10.0726 19.8686 11.4214C19.8163 11.9709 19.3283 12.3746 18.7787 12.3226C18.2291 12.2705 17.8256 11.7824 17.8775 11.2328C17.9993 9.94948 18.0587 8.64743 18.053 7.3306C18.0488 6.34305 18.0082 5.36404 17.932 4.39555L17.8438 3.4301L17.8385 3.32758C17.8377 2.82093 18.2207 2.38585 18.7356 2.33249ZM14.8307 3.34742C15.3464 3.30286 15.8051 3.65841 15.8997 4.15628L15.9138 4.25779L15.9718 5.02219C16.0224 5.78835 16.0497 6.56119 16.0531 7.33924C16.0575 8.37677 16.0199 9.40511 15.9404 10.4218C15.8972 10.9721 15.4156 11.3842 14.8653 11.3415C14.3149 11.2985 13.9029 10.8167 13.9456 10.2663C14.0208 9.30425 14.0573 8.33054 14.0531 7.34789C14.0499 6.61092 14.0242 5.8791 13.9762 5.15386L13.9204 4.43046L13.917 4.32794C13.9246 3.82132 14.315 3.39221 14.8307 3.34742Z"
                        fill="#292929" />
                </svg>