<svg width="80" height="80" viewBox="0 0 80 80" fill="none" xmlns="http://www.w3.org/2000/svg">
<path d="M48.4562 28.8884C49.3611 29.9313 50.94 30.0431 51.9829 29.1383C53.0257 28.2334 53.1376 26.6544 52.2327 25.6116L50.3444 27.25L48.4562 28.8884ZM30.7939 50.3616C29.889 49.3187 28.31 49.2069 27.2672 50.1117C26.2243 51.0166 26.1125 52.5956 27.0174 53.6384L28.9056 52L30.7939 50.3616ZM42.125 19C42.125 17.6193 41.0057 16.5 39.625 16.5C38.2443 16.5 37.125 17.6193 37.125 19H39.625H42.125ZM37.125 60.2499C37.125 61.6307 38.2442 62.75 39.6249 62.75C41.0057 62.75 42.125 61.6308 42.125 60.2501L39.625 60.25L37.125 60.2499ZM76.75 39.625H74.25C74.25 58.7479 58.7479 74.25 39.625 74.25V76.75V79.25C61.5093 79.25 79.25 61.5093 79.25 39.625H76.75ZM39.625 76.75V74.25C20.5021 74.25 5 58.7479 5 39.625H2.5H0C0 61.5093 17.7407 79.25 39.625 79.25V76.75ZM2.5 39.625H5C5 20.5021 20.5021 5 39.625 5V2.5V0C17.7407 0 0 17.7407 0 39.625H2.5ZM39.625 2.5V5C58.7479 5 74.25 20.5021 74.25 39.625H76.75H79.25C79.25 17.7407 61.5093 0 39.625 0V2.5ZM39.625 39.625V37.125C36.6325 37.125 34.0363 36.3118 32.2613 35.1285C30.4688 33.9335 29.75 32.5572 29.75 31.375H27.25H24.75C24.75 34.7491 26.8014 37.4978 29.4878 39.2888C32.1917 41.0913 35.783 42.125 39.625 42.125V39.625ZM27.25 31.375H29.75C29.75 30.1928 30.4688 28.8165 32.2613 27.6215C34.0363 26.4382 36.6325 25.625 39.625 25.625V23.125V20.625C35.783 20.625 32.1917 21.6587 29.4878 23.4612C26.8014 25.2522 24.75 28.0009 24.75 31.375H27.25ZM39.625 23.125V25.625C43.6889 25.625 46.9125 27.1094 48.4562 28.8884L50.3444 27.25L52.2327 25.6116C49.497 22.4588 44.7221 20.625 39.625 20.625V23.125ZM39.625 39.625V42.125C42.6175 42.125 45.2137 42.9382 46.9887 44.1215C48.7813 45.3165 49.5001 46.6928 49.5001 47.875H52.0001H54.5001C54.5001 44.5009 52.4486 41.7522 49.7622 39.9612C47.0583 38.1587 43.467 37.125 39.625 37.125V39.625ZM39.625 19H37.125V23.125H39.625H42.125V19H39.625ZM39.6251 56.125L37.1251 56.1249L37.125 60.2499L39.625 60.25L42.125 60.2501L42.1251 56.1251L39.6251 56.125ZM39.6251 56.125L39.6251 53.625C35.5612 53.625 32.3376 52.1406 30.7939 50.3616L28.9056 52L27.0174 53.6384C29.753 56.7912 34.528 58.625 39.6251 58.625L39.6251 56.125ZM52.0001 47.875H49.5001C49.5001 49.0572 48.7813 50.4335 46.9888 51.6285C45.2138 52.8118 42.6176 53.625 39.6251 53.625V56.125V58.625C43.4671 58.625 47.0584 57.5913 49.7623 55.7888C52.4487 53.9978 54.5001 51.2491 54.5001 47.875H52.0001ZM39.625 23.125L37.125 23.125L37.1251 56.125L39.6251 56.125L42.1251 56.125L42.125 23.125L39.625 23.125Z" fill="#0A1128"/>
</svg>
