<svg width="99" height="99" viewBox="0 0 99 99" fill="none" xmlns="http://www.w3.org/2000/svg">
<path d="M58.3312 38.7634C59.2361 39.8063 60.815 39.9181 61.8579 39.0133C62.9007 38.1084 63.0126 36.5294 62.1077 35.4866L60.2194 37.125L58.3312 38.7634ZM40.6689 60.2366C39.764 59.1937 38.185 59.0819 37.1422 59.9867C36.0993 60.8916 35.9875 62.4706 36.8924 63.5134L38.7806 61.875L40.6689 60.2366ZM52 28.875C52 27.4943 50.8807 26.375 49.5 26.375C48.1193 26.375 47 27.4943 47 28.875H49.5H52ZM47 70.1249C47 71.5057 48.1192 72.625 49.4999 72.625C50.8807 72.625 52 71.5058 52 70.1251L49.5 70.125L47 70.1249ZM86.625 49.5H84.125C84.125 68.6229 68.6229 84.125 49.5 84.125V86.625V89.125C71.3843 89.125 89.125 71.3843 89.125 49.5H86.625ZM49.5 86.625V84.125C30.3771 84.125 14.875 68.6229 14.875 49.5H12.375H9.875C9.875 71.3843 27.6157 89.125 49.5 89.125V86.625ZM12.375 49.5H14.875C14.875 30.3771 30.3771 14.875 49.5 14.875V12.375V9.875C27.6157 9.875 9.875 27.6157 9.875 49.5H12.375ZM49.5 12.375V14.875C68.6229 14.875 84.125 30.3771 84.125 49.5H86.625H89.125C89.125 27.6157 71.3843 9.875 49.5 9.875V12.375ZM49.5 49.5V47C46.5075 47 43.9113 46.1868 42.1363 45.0035C40.3438 43.8085 39.625 42.4322 39.625 41.25H37.125H34.625C34.625 44.6241 36.6764 47.3728 39.3628 49.1638C42.0667 50.9663 45.658 52 49.5 52V49.5ZM37.125 41.25H39.625C39.625 40.0678 40.3438 38.6915 42.1363 37.4965C43.9113 36.3132 46.5075 35.5 49.5 35.5V33V30.5C45.658 30.5 42.0667 31.5337 39.3628 33.3362C36.6764 35.1272 34.625 37.8759 34.625 41.25H37.125ZM49.5 33V35.5C53.5639 35.5 56.7875 36.9844 58.3312 38.7634L60.2194 37.125L62.1077 35.4866C59.372 32.3338 54.5971 30.5 49.5 30.5V33ZM49.5 49.5V52C52.4925 52 55.0887 52.8132 56.8637 53.9965C58.6563 55.1915 59.3751 56.5678 59.3751 57.75H61.8751H64.3751C64.3751 54.3759 62.3236 51.6272 59.6372 49.8362C56.9333 48.0337 53.342 47 49.5 47V49.5ZM49.5 28.875H47V33H49.5H52V28.875H49.5ZM49.5001 66L47.0001 65.9999L47 70.1249L49.5 70.125L52 70.1251L52.0001 66.0001L49.5001 66ZM49.5001 66L49.5001 63.5C45.4362 63.5 42.2126 62.0156 40.6689 60.2366L38.7806 61.875L36.8924 63.5134C39.628 66.6662 44.403 68.5 49.5001 68.5L49.5001 66ZM61.8751 57.75H59.3751C59.3751 58.9322 58.6563 60.3085 56.8638 61.5035C55.0888 62.6868 52.4926 63.5 49.5001 63.5V66V68.5C53.3421 68.5 56.9334 67.4663 59.6373 65.6638C62.3237 63.8728 64.3751 61.1241 64.3751 57.75H61.8751ZM49.5 33L47 33L47.0001 66L49.5001 66L52.0001 66L52 33L49.5 33Z" fill="#0A1128"/>
</svg>
