<svg width="200" height="200" viewBox="0 0 200 200" fill="none" xmlns="http://www.w3.org/2000/svg">
<rect x="1.5" y="1.5" width="197" height="197" fill="#EEF1F4"/>
<rect x="1.5" y="1.5" width="197" height="197" stroke="#545F71" stroke-width="3"/>
<path d="M89.3333 104.333L95.4477 98.2191C96.4891 97.1777 98.1776 97.1777 99.219 98.2191L105.333 104.333M102.667 101.667L104.781 99.5524C105.822 98.511 107.511 98.511 108.552 99.5524L110.667 101.667M102.667 93.6668H102.68M92 109.667H108C109.473 109.667 110.667 108.473 110.667 107V91.0002C110.667 89.5274 109.473 88.3335 108 88.3335H92C90.5273 88.3335 89.3333 89.5274 89.3333 91.0002V107C89.3333 108.473 90.5273 109.667 92 109.667Z" stroke="#545F71" stroke-width="2" stroke-linecap="round" stroke-linejoin="round"/>
</svg>
